Coordinates
version=1
nRows=10
nColumns=40
inDegrees=yes

Units are S.I. units (second, meters, Newtons, ...)
If the header above contains a line with 'inDegrees', this indicates whether rotational values are in degrees (yes) or radians (no).

endheader
time	pelvis_tilt	pelvis_list	pelvis_rotation	pelvis_tx	pelvis_ty	pelvis_tz	hip_flexion_r	hip_adduction_r	hip_rotation_r	knee_angle_r	knee_angle_r_beta	ankle_angle_r	subtalar_angle_r	mtp_angle_r	hip_flexion_l	hip_adduction_l	hip_rotation_l	knee_angle_l	knee_angle_l_beta	ankle_angle_l	subtalar_angle_l	mtp_angle_l	lumbar_extension	lumbar_bending	lumbar_rotation	arm_flex_r	arm_add_r	arm_rot_r	elbow_flex_r	pro_sup_r	wrist_flex_r	wrist_dev_r	arm_flex_l	arm_add_l	arm_rot_l	elbow_flex_l	pro_sup_l	wrist_flex_l	wrist_dev_l
      4.27500000	    -22.04601323	     -3.84645360	     -9.73755834	     -2.80677189	      0.98973402	      0.33579288	     36.98924336	     10.57691889	     -7.92177817	     40.33836799	      0.70403734	     24.90338200	      0.00000000	      0.00000000	     21.25744707	     -8.44578900	     -7.73580233	     90.84259057	      1.58550231	    -11.40222876	      0.00000000	      0.00000000	    -10.99076276	     13.18975658	     12.08475414	     -6.96337401	     -8.74199260	    -15.27052165	     84.78891150	     88.47051843	      0.00000000	      0.00000000	     11.56763491	    -14.98060294	     30.63789944	     62.57327060	     88.21645331	      0.00000000	      0.00000000
      4.28000000	    -22.42507685	     -3.16371761	    -10.49230728	     -2.77982748	      0.98833645	      0.33610219	     35.73655336	     10.38933200	     -6.39454772	     40.58742900	      0.70838427	     26.40110563	      0.00000000	      0.00000000	     24.17987460	     -8.26308168	     -7.46152345	     92.90008779	      1.62141241	     -9.87434180	      0.00000000	      0.00000000	    -10.60349179	     12.47256842	     12.77530241	     -4.66392815	     -8.70383201	    -12.73828925	     85.37134195	     88.46345361	      0.00000000	      0.00000000	      8.86392926	    -15.78681095	     27.83979538	     63.34703776	     88.22765426	      0.00000000	      0.00000000
      4.28500000	    -22.83080249	     -2.40603944	    -11.12430681	     -2.75287299	      0.98703010	      0.33611443	     34.41423713	      9.98641723	     -5.01910482	     40.53421415	      0.70745550	     27.77887419	      0.00000000	      0.00000000	     27.21487881	     -7.98679011	     -7.10121119	     94.69653499	      1.65276633	     -8.34970965	      0.00000000	      0.00000000	    -10.13393982	     11.70242098	     13.45896402	     -2.52649411	     -8.66473859	    -10.31736931	     86.17030317	     88.45508868	      0.00000000	      0.00000000	      6.28665417	    -16.61927950	     25.31249526	     64.19174796	     88.24618084	      0.00000000	      0.00000000
      4.29000000	    -22.71725892	     -1.83524665	    -11.27051740	     -2.72560237	      0.98685429	      0.33543207	     32.37551935	      9.34213151	     -4.07803592	     40.06297898	      0.69923089	     28.61979385	      0.00000000	      0.00000000	     29.81199235	     -7.56178528	     -6.23115899	     96.12464264	      1.67769151	     -7.46363762	      0.00000000	      0.00000000	    -10.18935180	     11.04309030	     14.74162018	     -1.14251705	     -8.66920902	     -9.07969136	     87.83230291	     88.36485066	      0.00000000	      0.00000000	      5.07376934	    -17.44731635	     24.90026290	     64.26644978	     88.05112212	      0.00000000	      0.00000000
      4.29500000	    -23.86015416	     -0.53586886	    -11.93039028	     -2.69908697	      0.98435719	      0.33592632	     31.90926397	      8.50807192	     -2.54266923	     39.86040152	      0.69569525	     29.97331025	      0.00000000	      0.00000000	     33.78841546	     -7.04545867	     -6.10127374	     97.47566978	      1.70127138	     -5.69940362	      0.00000000	      0.00000000	     -8.73221965	      9.80542977	     14.13142828	      1.75817831	     -8.41353152	     -5.32100808	     87.81925322	     88.42149648	      0.00000000	      0.00000000	      0.80957551	    -18.41787923	     19.97247645	     66.39694046	     88.26134218	      0.00000000	      0.00000000
      4.30000000	    -24.48615586	      0.48561091	    -12.08845942	     -2.67215625	      0.98300575	      0.33571693	     30.71097120	      7.52676640	     -1.51633100	     39.19867824	      0.68414600	     30.61462546	      0.00000000	      0.00000000	     37.26368661	     -6.45816092	     -5.48773945	     98.45479413	      1.71836032	     -4.33453223	      0.00000000	      0.00000000	     -7.81760680	      8.77643948	     14.20965980	      3.80317854	     -8.19111745	     -2.90073892	     88.72162986	     88.41322320	      0.00000000	      0.00000000	     -2.00159826	    -19.33972337	     17.30387965	     67.67397887	     88.26769048	      0.00000000	      0.00000000
      4.30500000	    -25.15474439	      1.59276781	    -12.03601306	     -2.64509958	      0.98166639	      0.33524359	     29.53443474	      6.31322229	     -0.69590269	     38.39581582	      0.67013341	     31.07752922	      0.00000000	      0.00000000	     40.83166207	     -5.68864482	     -4.81415050	     99.13396384	      1.73021407	     -3.18571182	      0.00000000	      0.00000000	     -6.78529192	      7.66310870	     13.92785326	      5.89642326	     -7.91663234	     -0.34813375	     89.55343725	     88.38848923	      0.00000000	      0.00000000	     -5.01617806	    -20.26000276	     14.43779813	     69.10305010	     88.28628035	      0.00000000	      0.00000000
      4.31000000	    -25.85501696	      2.70243363	    -11.79103981	     -2.61795610	      0.98039893	      0.33469626	     28.33607037	      4.99256745	     -0.04198104	     37.39543503	      0.65267347	     31.21684221	      0.00000000	      0.00000000	     44.42875678	     -4.83648558	     -4.08344093	     99.51896796	      1.73693366	     -2.17711585	      0.00000000	      0.00000000	     -5.68634780	      6.52491156	     13.39441793	      7.99225896	     -7.55321847	      2.20470695	     90.32000960	     88.35649726	      0.00000000	      0.00000000	     -8.13176159	    -21.14245288	     11.48235108	     70.62415044	     88.30052475	      0.00000000	      0.00000000
      4.31500000	    -26.61495735	      3.88253183	    -11.43176643	     -2.59068603	      0.97914256	      0.33386093	     27.18546417	      3.50923488	      0.45496397	     36.25904980	      0.63283980	     31.08315044	      0.00000000	      0.00000000	     48.03998362	     -3.84033445	     -3.42416407	     99.58536420	      1.73809249	     -1.07578149	      0.00000000	      0.00000000	     -4.48523485	      5.31408690	     12.70554475	     10.05081396	     -7.15183942	      4.72026534	     91.05038917	     88.33103542	      0.00000000	      0.00000000	    -11.35557188	    -21.92621829	      8.48373339	     72.23049517	     88.30736342	      0.00000000	      0.00000000
      4.32000000	    -27.30737596	      4.97930259	    -10.86169117	     -2.56318324	      0.97812488	      0.33326705	     25.87286935	      2.04691751	      0.86685983	     34.98241263	      0.61055828	     30.47172060	      0.00000000	      0.00000000	     51.52181432	     -2.84339420	     -2.73174448	     99.36690225	      1.73427961	     -0.23366224	      0.00000000	      0.00000000	     -3.35266685	      4.09388253	     11.85744224	     11.98977058	     -6.65998039	      7.11601908	     91.79189122	     88.28742971	      0.00000000	      0.00000000	    -14.51884474	    -22.69125234	      5.51097767	     73.76147226	     88.31848775	      0.00000000	      0.00000000
